<?xml version="1.0" encoding="utf-8"?>
<!DOCTYPE svg PUBLIC "-//W3C//DTD SVG 1.1//EN" "http://www.w3.org/Graphics/SVG/1.1/DTD/svg11.dtd">
<svg version="1.1" xmlns="http://www.w3.org/2000/svg" xmlns:xlink="http://www.w3.org/1999/xlink" width="100px" height="100px" viewBox="0 0 100 100">
<path stroke-width="3" stroke-linecap="round" fill="none" stroke="#000" d="M27 23A4 4 0 1 0 27.1 23M52 23A4 4 0 1 0 52.1 23M77 23A4 4 0 1 0 77.1 23M27 48A4 4 0 1 0 27.1 48M52 48A4 4 0 1 0 52.1 48M77 48A4 4 0 1 0 77.1 48M27 73A4 4 0 1 0 27.1 73M52 73A4 4 0 1 0 52.1 73M77 73A4 4 0 1 0 77.1 73"/></svg>
